<svg id="Layer_1" data-name="Layer 1" xmlns="http://www.w3.org/2000/svg" viewBox="0 0 259.02 242.12"><title>r-logo</title><rect x="425.55" y="204.79" width="95" height="95" transform="translate(-293.55 -127.03) rotate(-6.84)"/><path d="M338.26,207.29V191.07a20.53,20.53,0,0,0-.34-4.75,1.73,1.73,0,0,0-1.91-1.13q-11.94,5.43-23.2,9.71-5.18,2-18.7,6.78l-26.35,9.26v7.5q4.07-.9,7.8-1.46a42.38,42.38,0,0,1,6-.57q11.09,0,15.27,9.59T301,257.94l0,0v49.37H401v-100H338.26Z" transform="translate(-266.85 -185.19)"/><path d="M410.12,412.71c-6-5-9-10.8-9-23.71H401V327.29H301V392q-0.53,15.44-6.71,20.47-6.76,5.5-27.49,7.29v7.5H440.11v-7.5Q419.14,420.26,410.12,412.71Z" transform="translate(-266.85 -185.19)"/></svg>